/* XPM */
static const char *mainicon16[] = {
/* columns rows colors chars-per-pixel */
"16 16 97 2",
"   c #453700",
".  c #473900",
"X  c #4F3F00",
"o  c #564500",
"O  c #695400",
"+  c #6A5B1D",
"@  c #655929",
"#  c #6F6026",
"$  c #706227",
"%  c #73683A",
"&  c #5D5D5D",
"*  c #7C775F",
"=  c #7F7960",
"-  c #7B786C",
";  c gray45",
":  c #747474",
">  c #777777",
",  c #7B7B7B",
"<  c #7E7D78",
"1  c #7E7E7E",
"2  c #876C00",
"3  c #88700A",
"4  c #927500",
"5  c #947600",
"6  c #967800",
"7  c #997B00",
"8  c #9B7C00",
"9  c #807D70",
"0  c #A78600",
"q  c #B99500",
"w  c #C9A100",
"e  c #D4AA00",
"r  c #9F9050",
"t  c #9F9252",
"y  c #A6984C",
"u  c #848174",
"i  c #A09E60",
"p  c #808080",
"a  c #818382",
"s  c gray51",
"d  c gray52",
"f  c #868686",
"g  c gray53",
"h  c #838A86",
"j  c gray55",
"k  c #8D8D8D",
"l  c #8E8E8E",
"z  c gray56",
"x  c #88988E",
"c  c #8C9691",
"v  c #8D9691",
"b  c gray57",
"n  c #929292",
"m  c #939393",
"M  c gray58",
"N  c #909894",
"B  c #929A96",
"V  c #989898",
"C  c gray61",
"Z  c #9D9D9D",
"A  c #8FB09C",
"S  c #96B393",
"D  c #92B097",
"F  c #A7A497",
"G  c #94B4A1",
"H  c #A0A0A0",
"J  c gray65",
"K  c #A9A9A9",
"L  c #AAAAAA",
"P  c #AEADA9",
"I  c #AFAFAF",
"U  c #B0AEA3",
"Y  c #B2B2B2",
"T  c gray71",
"R  c gray72",
"E  c #B9B9B9",
"W  c gray73",
"Q  c #BCBCBC",
"!  c gray74",
"~  c #AAFFCC",
"^  c gray76",
"/  c #C3C3C3",
"(  c gray77",
")  c gray78",
"_  c #CACACA",
"`  c gray81",
"'  c #D0D0D0",
"]  c gray82",
"[  c #D7D7D7",
"{  c gray86",
"}  c #DFDFDF",
"|  c gray88",
" . c #E7E7E7",
".. c gray91",
"X. c #EFEFEF",
"o. c gray97",
"O. c None",
/* pixels */
"O.O.O.& g g g g g O.O.O.O.O.O.O.",
"O.O.s T 1 j : l n l , g O.O.O.O.",
"O.& I > { , d V s V Z J k H O.O.",
"O.J K W s b ; ) Y [ X.` [ o.O.O.",
"O.E L ' L ` n ! [  ...| | [ O.O.",
"O.H C } R  .L _ T Q / ( _ ^ O.O.",
"O.- 9 F u P K X.X.) } [ | [ O.O.",
"O.2 4 4 4 3 + $ # $ @ U ] [ O.O.",
"o 5 e e e e e e y S S D G G A h ",
"o 6 e e e e e e i ~ ~ ~ ~ ~ ~ x ",
"o 7 e e e e e e t B N v c N B a ",
"o 8 e e e e e e r m z j j z m p ",
"X 0 e e e e e e r V M z z M V p ",
"  q e e e e e e r Z V n m V Z p ",
". w e e e e e e r V M z z M V p ",
"O.O O O O O O O % = * < d f g O."
};
