/* XPM */
static const char *mainicon32[] = {
/* columns rows colors chars-per-pixel */
"32 32 111 2",
"   c #1F1900",
".  c gray12",
"X  c #251D00",
"o  c #322800",
"O  c #352A00",
"+  c #3B2F00",
"@  c gray14",
"#  c #272727",
"$  c #282828",
"%  c gray17",
"&  c #393526",
"*  c #3F3C2E",
"=  c gray20",
"-  c gray24",
";  c #413300",
":  c #453700",
">  c #4C3D00",
",  c #43370B",
"<  c #423E30",
"1  c #4D4009",
"2  c #554500",
"3  c #594800",
"4  c #5A4800",
"5  c #5A4900",
"6  c #5C4900",
"7  c #5C4A00",
"8  c #5D4A00",
"9  c #5F4C00",
"0  c #604D00",
"q  c #624F00",
"w  c #665200",
"e  c #695400",
"r  c #6F5900",
"t  c #47412A",
"y  c #484434",
"u  c #645621",
"i  c #414141",
"p  c #464646",
"a  c #4B4B4B",
"s  c #4C4C4C",
"d  c gray30",
"f  c #4E4E4E",
"g  c #555242",
"h  c #555245",
"j  c #505050",
"k  c #535353",
"l  c #706C5C",
"z  c gray38",
"x  c #626262",
"c  c DimGray",
"v  c #6C6C6C",
"b  c #6D6D6D",
"n  c #6F6F6F",
"m  c #7C7763",
"M  c #7D7969",
"N  c #717171",
"B  c gray45",
"V  c #767676",
"C  c #777777",
"Z  c #7B7A74",
"A  c gray47",
"S  c #797979",
"D  c #7B7B7B",
"F  c #7C7C7C",
"G  c gray49",
"H  c #7F7F7F",
"J  c #806600",
"K  c #856A00",
"L  c #896D00",
"P  c #907300",
"I  c #957700",
"U  c #A08100",
"Y  c #AF8D00",
"T  c #BB9600",
"R  c #BE9900",
"E  c #BF9E18",
"W  c #BF9F20",
"Q  c #C09A00",
"!  c #CDA500",
"~  c #D0A700",
"^  c #D2A900",
"/  c #D4AA00",
"(  c #938960",
")  c #808080",
"_  c #838383",
"`  c #838885",
"'  c #888888",
"]  c gray54",
"[  c #8D8D8D",
"{  c #88988E",
"}  c #96948B",
"|  c #979797",
" . c #9B9B9B",
".. c #9D9D9D",
"X. c #9F9F9F",
"o. c #8BA093",
"O. c #A5A5A5",
"+. c #A7A7A7",
"@. c #B9B7AF",
"#. c gray70",
"$. c gray72",
"%. c #B9B9B9",
"&. c gray75",
"*. c #A0E0BA",
"=. c #AAFFCC",
"-. c gray79",
";. c #DFDFDF",
":. c #E4E4E4",
">. c #E6E6E6",
",. c gray100",
"<. c None",
/* pixels */
"<.<.<.<.<.<.<.<.<.<.<.<.<.<.<.<.<.<.<.<.<.<.<.<.<.<.<.<.<.<.<.<.",
"<.<.<.<.<.<.. b b b b b b b b b b b $ <.<.<.<.<.<.<.<.<.<.<.<.<.",
"<.<.<.<.<.f v ,.X.s a n D B n B D B c b b $ <.<.<.<.<.<.<.<.<.<.",
"<.<.<.<.z :.V ,.k O.F ;.c # B B D n n D B v b b b $ <.<.<.<.<.<.",
"<.<.% A >.>.N p %.>.F $.k v ,._ @ D n D B n B D B c b b $ <.<.<.",
"<.<.i F F N - -.>.>.k z :.V $.k v ,.X.X.;.H ;.X.H X.;.X.= <.<.<.",
"<.<.b ,.,.n V F F a S >.>.j x :.V ,.,.,.,.,.,.,.,.,.,.,.= <.<.<.",
"<.<.b X.X.H ,.,.,.d F F a A >.>.V ;.H ;.&.,.X.X.;.H ;.,.= <.<.<.",
"<.<.b ,.X.B ;.H ;.D ,.,.d F F F G ;.X.,.&.;.X.;.X.;.H ;.= <.<.<.",
"<.<.b ,.,.H ,.;.X.D X.X.H ,.,.,.,.,.,.,.,.,.,.,.,.,.,.,.= <.<.<.",
"<.<.b X.;.B ,.,.,.H ,.X.D X.X.,.X.;.;.X.;.H ;.X.X.,.X.X.= <.<.<.",
"<.<.b ;.H B ;.X.,.C ,.,.H ,.X.;.X.X.;.H ;.&.;.X.;.X.;.;.= <.<.<.",
"<.<.b ,.,.H ,.X.X.D X.;.D ,.,.,.,.,.,.,.,.,.,.,.,.,.,.,.= <.<.<.",
"<.<.* g l & M M M y } H D X.;.;.;.;.H X.;.X.;.H X.;.H ;.= <.<.<.",
"<.X I L w w w w w w 1 t < l y l g g l y l h  .;.X.X.H ;.= <.<.<.",
"<.: K e Q Q Q Q Q Q Q T > 8 8 8 8 8 8 8 8 , m @.,.,.,.,.= <.<.<.",
"<.: 7 ~ / / / / / / / / ^ ! ! ! E ( ( ( ( ( ( Z ' | ) | B ) ) <.",
"<.: 3 / / / / / / / / / / / / / W { *.*.*.*.*.*.*.*.*.*.*.*.{ <.",
"<.: 5 / / / / / / / / / / / / / W o.=.=.=.=.=.=.=.=.=.=.=.=.o.<.",
"<.: 6 / / / / / / / / / / / / / W o.=.=.=.=.=.=.=.=.=.=.=.=.o.<.",
"<.: 8 / / / / / / / / / / / / / W ` o.o.o.o.o.o.o.o.o.o.o.o.` <.",
"<.: 9 / / / / / / / / / / / / / W ) ....] +.] ....] +.] ....) <.",
"<.: 0 / / / / / / / / / / / / / W ) ....] +.] ....] +.] ....) <.",
"<.: q / / / / / / / / / / / / / W ) ] ] _ [ _ ] ] _ [ _ ] ] ) <.",
"<.; r / / / / / / / / / / / / / W ) +.+.[ #.[ +.+.[ #.[ +.+.) <.",
"<.+ J / / / / / / / / / / / / / W ) ] ] _ [ _ ] ] _ [ _ ] ] ) <.",
"<.O P / / / / / / / / / / / / / W ) ....] +.] ....] +.] ....) <.",
"<.o U / / / / / / / / / / / / / W ) ....] +.] ....] +.] ....) <.",
"<.O Y / / / / / / / / / / / / / W ) ] ] _ [ _ ] ] _ [ _ ] ] ) <.",
"<.O R / / / / / / / / / / / / / W ) +.+.[ #.[ +.+.[ #.[ +.+.) <.",
"<.  2 4 4 4 4 4 4 4 4 4 4 4 4 4 u ) ] ] _ [ _ ] ] _ [ _ ] ] ) <.",
"<.<.<.<.<.<.<.<.<.<.<.<.<.<.<.<.<.<.<.<.<.<.<.<.<.<.<.<.<.<.<.<."
};
