/* XPM */
static const char *mainicon48[] = {
/* columns rows colors chars-per-pixel */
"48 48 208 2",
"   c #060606",
".  c #070707",
"X  c #110E00",
"o  c #130F00",
"O  c #171200",
"+  c #191508",
"@  c #19160A",
"#  c #1A170A",
"$  c #101010",
"%  c gray7",
"&  c gray8",
"*  c #151515",
"=  c gray9",
"-  c #181818",
";  c #191919",
":  c gray10",
">  c #1B1B1B",
",  c gray11",
"<  c #1D1D1D",
"1  c gray12",
"2  c #251E00",
"3  c #271F00",
"4  c #261F01",
"5  c #201B04",
"6  c #282000",
"7  c #2D2400",
"8  c #2E2500",
"9  c #302700",
"0  c #312800",
"q  c #332900",
"w  c #352A00",
"e  c #392D00",
"r  c #382D02",
"t  c #3E3200",
"y  c #282417",
"u  c #202020",
"i  c #222222",
"p  c gray14",
"a  c #252525",
"s  c #282828",
"d  c #2A2A2A",
"f  c gray17",
"g  c #2C2C2C",
"h  c gray18",
"j  c #2F2F2F",
"k  c #333023",
"l  c #333026",
"z  c #3A372A",
"x  c #3E3A2A",
"c  c #3E3A2D",
"v  c #3F3C2E",
"b  c gray19",
"n  c #313131",
"m  c #323232",
"M  c #343434",
"N  c gray21",
"B  c #373737",
"V  c gray22",
"C  c #393939",
"Z  c #3A3A3A",
"A  c gray23",
"S  c #3C3C3C",
"D  c gray24",
"F  c #3E3E3E",
"G  c #3F3F3F",
"H  c #413400",
"J  c #433600",
"K  c #483900",
"L  c #483A00",
"P  c #4B3C00",
"I  c #4D3D00",
"U  c #4D3E00",
"Y  c #4C3F09",
"T  c #433F30",
"R  c #4D400A",
"E  c #504000",
"W  c #574600",
"Q  c #5C4A00",
"!  c #5D4A00",
"~  c #50420D",
"^  c #52450F",
"/  c #544711",
"(  c #554812",
")  c #604D00",
"_  c #624E00",
"`  c #655000",
"'  c #685300",
"]  c #6C5700",
"[  c #6D5700",
"{  c #6E5800",
"}  c #6F5900",
"|  c #6D5803",
" . c #796100",
".. c #7E6500",
"X. c #7F6600",
"o. c #464646",
"O. c gray29",
"+. c gray30",
"@. c #525045",
"#. c #515151",
"$. c gray32",
"%. c gray34",
"&. c #5D5D5D",
"*. c gray37",
"=. c #5F5F5F",
"-. c #797254",
";. c #606060",
":. c #676767",
">. c #6A6966",
",. c #6A6A6A",
"<. c gray43",
"1. c #6F6F6F",
"2. c gray44",
"3. c gray45",
"4. c #747472",
"5. c #757573",
"6. c #747474",
"7. c gray46",
"8. c #767676",
"9. c gray47",
"0. c #7A7A79",
"q. c gray48",
"w. c #7C7C7C",
"e. c #7E7E7E",
"r. c #7F7F7F",
"t. c #856B00",
"y. c #8D7100",
"u. c #8F7200",
"i. c #907300",
"p. c #967800",
"a. c #9B7C00",
"s. c #9C7D00",
"d. c #9D7E00",
"f. c #9F7F00",
"g. c #837F70",
"h. c #A58400",
"j. c #AA8800",
"k. c #AB8900",
"l. c #AC8A00",
"z. c #B99400",
"x. c #BB9600",
"c. c #CAA200",
"v. c #CDA500",
"b. c #CEA500",
"n. c #D4AA00",
"m. c #9C8D50",
"M. c #A29046",
"N. c #8A8570",
"B. c #808080",
"V. c #818181",
"C. c gray51",
"Z. c #828684",
"A. c #848484",
"S. c #868686",
"D. c gray53",
"F. c gray54",
"G. c gray55",
"H. c gray56",
"J. c #85908A",
"K. c #86928B",
"L. c gray57",
"P. c #939393",
"I. c gray58",
"U. c #959595",
"Y. c #979797",
"T. c gray60",
"R. c #9B9B9B",
"E. c gray61",
"W. c gray62",
"Q. c #90B09D",
"!. c #A0A0A0",
"~. c gray64",
"^. c gray65",
"/. c gray66",
"(. c #ACACAC",
"). c gray68",
"_. c #AFAFAF",
"`. c gray70",
"'. c #B4B4B4",
"]. c #B6B6B6",
"[. c #B7B7B7",
"{. c #BBBBBB",
"}. c gray74",
"|. c gray",
" X c gray75",
".X c #AAFFCC",
"XX c #C0C0C0",
"oX c #C1C1C1",
"OX c #C5C5C5",
"+X c #C6C6C6",
"@X c gray78",
"#X c #CDCDCD",
"$X c gray81",
"%X c #D7D7D7",
"&X c #DDDDDD",
"*X c gray87",
"=X c gray88",
"-X c #E1E1E1",
";X c gray89",
":X c gray90",
">X c #E6E6E6",
",X c #E7E7E7",
"<X c gray91",
"1X c #EFEFEF",
"2X c gray97",
"3X c #FBFBFB",
"4X c gray100",
"5X c None",
/* pixels */
"5X5X5X5X5X5X5X5X5X5X5X5X5X5X5X5X5X5X5X5X5X5X5X5X5X5X5X5X5X5X5X5X5X5X5X5X5X5X5X5X5X5X5X5X5X5X5X5X",
"5X5X5X5X5X5X5X5X5X5X- , , , , , , , , , , , , , , , , 5X5X5X5X5X5X5X5X5X5X5X5X5X5X5X5X5X5X5X5X5X",
"5X5X5X5X5X5X5X5X5X% *. X X X X X X X X X X X X X X X X, 5X5X5X5X5X5X5X5X5X5X5X5X5X5X5X5X5X5X5X5X",
"5X5X5X5X5X5X5X$ d T.e.4X%X X&.u Z C D F C C C A G Z A f g g g g   5X5X5X5X5X5X5X5X5X5X5X5X5X5X5X",
"5X5X5X5X5X5X& Z &X(.e.4X_.b o.S 4X4X4X4X3.r.r.r.r.r.r.r.r.r.r.r.i , , , , ; 5X5X5X5X5X5X5X5X5X5X",
"5X5X5X5X5X= #.;X>X(.e.3XN ;.:XD 4X[.D < .  X X X X X X X X X X X X X X X X%.5X5X5X5X5X5X5X5X5X5X",
"5X5X5X5X= <.>X>X>X(.8.i w.>X>XD 4X<Xi F.A 4X2X}.j d D C Z G A C C C F D C n f g g g % 5X5X5X5X5X",
"5X5X5X* a 6.6.6.6.+.> Y.>X>X>XD OX: ~.>XA 4X-X1 O.e.4X4X4X4X4X4X4X4X4X4X4X4X4X4X4X4X, 5X5X5X5X5X",
"5X5X5Xp  X X X XU.> (.>X>X>X>Xg < ].>X>XA *X1 Y.(.e.4XD.G D.4X%.G [.,XG G G D.4X%.D., 5X5X5X5X5X",
"5X5X5Xg 4X4X4X4Xm B D D D D s u +X>X>X>Xh < (.>X(.e.4X4X4X4X4X4X4X4X4X4X4X4X4X4X4X4X, 5X5X5X5X5X",
"5X5X5Xg 1Xr.r.1XG 4X4X4X4XR.. ;.7.7.7.+., |.>X>X(.e.$Xr.H.4X_.1X4X_.r._.4XH.r.$X4X4X, 5X5X5X5X5X",
"5X5X5Xg 2X X X2XG 4X4X4X4Xq.H. X X X,.a #X>X>X>X(.e.,X X@X4X%X2X4X%X X%X4X@X X,X4X4X, 5X5X5X5X5X",
"5X5X5Xg 4X4X%X@XG 4X%.G [.r. X4X4X4X1 A D D D D D W.,X X2X4X%X2X,X X2X,X X2X,X X@X4X, 5X5X5X5X5X",
"5X5X5Xg 4X4X_.H.G 4X4X4X4Xr. X_.r._.G 4X4X4X4X4X4X4X$Xr.1X4X_.1X$Xr.1X$Xr.1X$Xr.H.4X, 5X5X5X5X5X",
"5X5X5Xg 4X4X4X4XG 4X4X[.G 7. X%X X%XG 4X4X4X4X4X4X4X4X4X4X4X4X4X4X4X4X4X4X4X4X4X4X4X, 5X5X5X5X5X",
"5X5X5Xg ,XG [.4XM 4X4X4X4Xr. X4X2X XD ,XG G ,X4XD.%.4X4X%.D.4X%.G [.,XG G ,X4XD.G D., 5X5X5X5X5X",
"5X5X5Xg 4X4X4X4XG 4XH._.4X9. X4X1Xr.A 4X4X4X4X4X4X4X4X4X4X4X4X4X4X4X4X4X4X4X4X4X4X4X, 5X5X5X5X5X",
"5X5X5Xg 4X[.G %.G 4X@X%X4Xw. X4X4X4XG 4X4XD.%.4XD.G D.4X%.G [.,XD.4X%.D.4X%.D.4X1.4X, 5X5X5X5X5X",
"5X5X5Xg 4X4X4X4XG 4X2X X Xw. XD.%.4XG 4X4X4X4X4X4X4X4X4X4X4X4X4X4X4X4X4X4X4X4X4X4X4X, 5X5X5X5X5X",
"5X5X5Xg 1Xr.$X1Xf 4X1Xr.r.9. X4X4X4XG 1Xr.$X4X$X$X4X$Xr.r._.4XH._.4XH.r.r.1X$Xr.H.4X, 5X5X5X5X5X",
"5X5X5X@ c k z c # v v v v y k @.$.G V 2X X,X4X,X,X4X,X X X%X4X@X%X4X@X X X2X,X X@X4X, 5X5X5X5X5X",
"5X5Xo X.h.d.i.i.i.i.i.i.i.i.i.| l ).n @X'.U.R.@X/.U./.@XR.U.'.oXU.{.2X,X X1X X X@X4X, 5X5X5X5X5X",
"5X5X` j.u.6 P P P P P P P P P P K r 4 ( ^ Y R ( ~ Y ~ ( R Y ^ / + 3.1X$Xr.=Xr.r.H.4X, 5X5X5X5X5X",
"5X5X} a.3 z.n.n.n.n.n.n.n.n.n.n.n.n.{ 6 q q q q q q q q q q q q 5 x T XX4X4X4X4X4X4X, 5X5X5X5X5X",
"5X5X} t.! n.n.n.n.n.n.n.n.n.n.n.n.n.n.b.v.v.v.v.v.M.m.m.m.m.m.m.m.m.-.V.:.^.I.:.2._.=.B.B.B.B.5X",
"5X5X}  .{ n.n.n.n.n.n.n.n.n.n.n.n.n.n.n.n.n.n.n.n.N.Z.J.J.J.J.J.J.J.J.J.J.J.J.J.J.J.J.J.J.Z.B.5X",
"5X5X} [ ..n.n.n.n.n.n.n.n.n.n.n.n.n.n.n.n.n.n.n.n.N.Q..X.X.X.X.X.X.X.X.X.X.X.X.X.X.X.X.X.XQ.B.5X",
"5X5X} _ y.n.n.n.n.n.n.n.n.n.n.n.n.n.n.n.n.n.n.n.n.N.Q..X.X.X.X.X.X.X.X.X.X.X.X.X.X.X.X.X.XQ.B.5X",
"5X5X} W d.n.n.n.n.n.n.n.n.n.n.n.n.n.n.n.n.n.n.n.n.N.Q..X.X.X.X.X.X.X.X.X.X.X.X.X.X.X.X.X.XQ.B.5X",
"5X5X} I l.n.n.n.n.n.n.n.n.n.n.n.n.n.n.n.n.n.n.n.n.N.Q..X.X.X.X.X.X.X.X.X.X.X.X.X.X.X.X.X.XQ.B.5X",
"5X5X} H x.n.n.n.n.n.n.n.n.n.n.n.n.n.n.n.n.n.n.n.n.N.K.Q.Q.Q.Q.Q.Q.Q.Q.Q.Q.Q.Q.Q.Q.Q.Q.Q.Q.K.B.5X",
"5X5X} w c.n.n.n.n.n.n.n.n.n.n.n.n.n.n.n.n.n.n.n.n.N.B.A.S.A.B.S.S.C.V.S.S.V.C.S.S.B.A.S.A.B.B.5X",
"5X5X} 7 n.n.n.n.n.n.n.n.n.n.n.n.n.n.n.n.n.n.n.n.n.N.B.!.`.!.B.).`.P.S.`.`.S.P.`.).B.!.`.!.B.B.5X",
"5X5X} 7 n.n.n.n.n.n.n.n.n.n.n.n.n.n.n.n.n.n.n.n.n.N.B.!.`.!.B.).`.P.S.`.`.S.P.`.).B.!.`.!.B.B.5X",
"5X5X} 8 n.n.n.n.n.n.n.n.n.n.n.n.n.n.n.n.n.n.n.n.n.N.B.A.S.A.B.S.S.C.V.S.S.V.C.S.S.B.A.S.A.B.B.5X",
"5X5X{ 9 n.n.n.n.n.n.n.n.n.n.n.n.n.n.n.n.n.n.n.n.n.N.B.G.P.G.B.L.P.D.C.P.P.C.D.P.L.B.G.P.G.B.B.5X",
"5X5X' t n.n.n.n.n.n.n.n.n.n.n.n.n.n.n.n.n.n.n.n.n.N.B.!.`.!.B.).`.P.S.`.`.S.P.`.).B.!.`.!.B.B.5X",
"5X5X) U n.n.n.n.n.n.n.n.n.n.n.n.n.n.n.n.n.n.n.n.n.N.B.E.).E.B./.).L.S.).).S.L.)./.B.E.).E.B.B.5X",
"5X5XW Q n.n.n.n.n.n.n.n.n.n.n.n.n.n.n.n.n.n.n.n.n.N.B.B.B.B.B.B.B.B.B.B.B.B.B.B.B.B.B.B.B.B.B.5X",
"5X5XE ] n.n.n.n.n.n.n.n.n.n.n.n.n.n.n.n.n.n.n.n.n.N.B.I.!.I.B.E.!.G.A.!.!.A.G.!.E.B.I.!.I.B.B.5X",
"5X5XL ..n.n.n.n.n.n.n.n.n.n.n.n.n.n.n.n.n.n.n.n.n.N.B.!.`.!.B.).`.P.S.`.`.S.P.`.).B.!.`.!.B.B.5X",
"5X5XJ y.n.n.n.n.n.n.n.n.n.n.n.n.n.n.n.n.n.n.n.n.n.N.B.I.!.I.B.E.!.G.A.!.!.A.G.!.E.B.I.!.I.B.B.5X",
"5X5Xt s.n.n.n.n.n.n.n.n.n.n.n.n.n.n.n.n.n.n.n.n.n.N.B.B.B.B.B.B.B.B.B.B.B.B.B.B.B.B.B.B.B.B.B.5X",
"5X5Xe k.n.n.n.n.n.n.n.n.n.n.n.n.n.n.n.n.n.n.n.n.n.N.B.E.).E.B./.).L.S.).).S.L.)./.B.E.).E.B.B.5X",
"5X5X0 x.n.n.n.n.n.n.n.n.n.n.n.n.n.n.n.n.n.n.n.n.n.N.B.!.`.!.B.).`.P.S.`.`.S.P.`.).B.!.`.!.B.B.5X",
"5X5X2 p.f.f.f.f.f.f.f.f.f.f.f.f.f.f.f.f.f.f.f.f.f.g.B.G.P.G.B.L.P.D.C.P.P.C.D.P.L.B.G.P.G.B.B.5X",
"5X5XX O O O O O O O O O O O O O O O O O O O O O O >.4.4.4.4.4.4.5.0.B.B.B.B.B.B.B.B.B.B.B.B.B.5X",
"5X5X5X5X5X5X5X5X5X5X5X5X5X5X5X5X5X5X5X5X5X5X5X5X5X5X5X5X5X5X5X5X5X5X5X5X5X5X5X5X5X5X5X5X5X5X5X5X"
};
