/* XPM */
static const char *mainicon64[] = {
/* columns rows colors chars-per-pixel */
"64 64 140 2",
"   c black",
".  c #020100",
"X  c #020200",
"o  c #030200",
"O  c #030300",
"+  c #040400",
"@  c #060500",
"#  c #040404",
"$  c #060606",
"%  c #090600",
"&  c #080700",
"*  c #0A0800",
"=  c #0B0900",
"-  c #0C0900",
";  c #0D0A00",
":  c #0D0B01",
">  c #0E0B00",
",  c #0F0C00",
"<  c #0E0C01",
"1  c #090804",
"2  c #0D0C07",
"3  c #090909",
"4  c gray4",
"5  c #0B0B0B",
"6  c #0D0C08",
"7  c #0E0D08",
"8  c #0E0E0B",
"9  c #0C0C0C",
"0  c gray5",
"q  c #110E00",
"w  c #100F0B",
"e  c #181300",
"r  c #191400",
"t  c #1B1600",
"y  c #1C1600",
"u  c #1E1800",
"i  c #12100A",
"p  c #17140B",
"a  c gray7",
"s  c #131313",
"d  c gray9",
"f  c #1B1B1B",
"g  c #221B00",
"h  c #231C00",
"j  c #251E00",
"k  c #2B2200",
"l  c #2B2300",
"z  c #2E2500",
"x  c #312700",
"c  c #382D00",
"v  c #3A2E00",
"b  c #3A2F00",
"n  c #3B2F00",
"m  c #3D3100",
"M  c #272727",
"N  c #282828",
"B  c gray23",
"V  c #3F3F3F",
"C  c #413400",
"Z  c #483900",
"A  c #493B00",
"S  c #4A3B00",
"D  c #534300",
"F  c #544300",
"G  c #584600",
"H  c #5A4800",
"J  c #5F4C00",
"K  c #604D00",
"L  c #614E00",
"P  c #6A5400",
"I  c #6A5500",
"U  c #6B5600",
"Y  c #6C5600",
"T  c #745D00",
"R  c #775F00",
"E  c #796100",
"W  c #7F6500",
"Q  c gray25",
"!  c #464543",
"~  c gray33",
"^  c #555555",
"/  c gray44",
"(  c gray47",
")  c #7B7B7B",
"_  c #7C7C7C",
"`  c #7F7F7F",
"'  c #836900",
"]  c #856A00",
"[  c #886D00",
"{  c #896E00",
"}  c #8F7300",
"|  c #937600",
" . c #957700",
".. c #977900",
"X. c #987A00",
"o. c #997B00",
"O. c #9C7D00",
"+. c #9F7F00",
"@. c #A18100",
"#. c #A68500",
"$. c #A78600",
"%. c #A88700",
"&. c #AA8800",
"*. c #AA8900",
"=. c #AC8A00",
"-. c #B69200",
";. c #B79300",
":. c #B59720",
">. c #C49D00",
",. c #C59E00",
"<. c #C69F00",
"1. c #C79F00",
"2. c #CDA400",
"3. c #D2A900",
"4. c #D4AA00",
"5. c #A38F40",
"6. c #AA9540",
"7. c #808080",
"8. c #8B8B8B",
"9. c #8D8D8D",
"0. c #9A9A9A",
"q. c #9B9B9B",
"w. c #8BA093",
"e. c gray67",
"r. c gray70",
"t. c gray",
"y. c gray75",
"u. c #95C0A6",
"i. c #AAFFCC",
"p. c #C5C5C5",
"a. c #D2D2D2",
"s. c gainsboro",
"d. c #DFDFDF",
"f. c #E1E1E1",
"g. c #E2E2E2",
"h. c #E6E6E6",
"j. c gray91",
"k. c gray97",
"l. c gray100",
"z. c None",
/* pixels */
"z.z.z.z.z.z.z.z.z.z.z.z.z.z.z.z.z.z.z.z.z.z.z.z.z.z.z.z.z.z.z.z.z.z.z.z.z.z.z.z.z.z.z.z.z.z.z.z.z.z.z.z.z.z.z.z.z.z.z.z.z.z.z.z.",
"z.z.z.z.z.z.z.z.z.z.z.z.z.z.z.z.z.z.z.z.z.z.z.z.z.z.z.z.z.z.z.z.z.z.z.z.z.z.z.z.z.z.z.z.z.z.z.z.z.z.z.z.z.z.z.z.z.z.z.z.z.z.z.z.",
"z.z.z.z.z.z.z.z.z.z.z.z.  4                                               z.z.z.z.z.z.z.z.z.z.z.z.z.z.z.z.z.z.z.z.z.z.z.z.z.z.z.",
"z.z.z.z.z.z.z.z.z.z.z.$ 0   l.l.l.l.l.l.l.l.l.l.l.l.l.l.l.l.l.l.l.l.l.l.  z.z.z.z.z.z.z.z.z.z.z.z.z.z.z.z.z.z.z.z.z.z.z.z.z.z.z.",
"z.z.z.z.z.z.z.z.z.z.3 d p.  l.l.l.l.l.) 9                                               z.z.z.z.z.z.z.z.z.z.z.z.z.z.z.z.z.z.z.z.",
"z.z.z.z.z.z.z.z.z.5 M a.h.  l.l.`   # 0   l.l.l.l.l.l.l.l.l.l.l.l.l.l.l.l.l.l.l.l.l.l.  z.z.z.z.z.z.z.z.z.z.z.z.z.z.z.z.z.z.z.z.",
"z.z.z.z.z.z.z.z.0 B s.h.h.  l.l.l.V d p.  l.l.l.l.l.) 9                                               z.z.z.z.z.z.z.z.z.z.z.z.z.",
"z.z.z.z.z.z.z.5 ~ g.h.h.h.  l.k.N M a.h.  l.l.`   # 0   l.l.l.l.l.l.l.l.l.l.l.l.l.l.l.l.l.l.l.l.l.l.  z.z.z.z.z.z.z.z.z.z.z.z.z.",
"z.z.z.z.z.z.4 / h.h.h.h.h.  j.s B s.h.h.  l.l.l.V d p.  l.l.l.l.) 9                                               z.z.z.z.z.z.z.",
"z.z.z.z.z.3 8.h.h.h.h.h.h.  a ~ g.h.h.h.  l.k.N M a.h.  l.l.` # 0   l.l.l.l.l.l.l.l.l.l.l.l.l.l.l.l.l.l.l.l.l.l.  z.z.z.z.z.z.z.",
"z.z.z.z.3                 4 / h.h.h.h.h.  j.s B s.h.h.  l.l.V d p.  l.l.l.l.l.l.l.l.l.l.l.l.l.l.l.l.l.l.l.l.l.l.  z.z.z.z.z.z.z.",
"z.z.z.z.  l.l.l.l.l.l.q.4 8.h.h.h.h.h.h.  a ~ g.h.h.h.  k.N M a.h.  l.l.`     ` l.`     ` l.`         ` l.`   `   z.z.z.z.z.z.z.",
"z.z.z.z.  l.l.l.l.l.l.5                 4 / h.h.h.h.h.  f B s.h.h.  l.l.l.l.l.l.l.l.l.l.l.l.l.l.l.l.l.l.l.l.l.l.  z.z.z.z.z.z.z.",
"z.z.z.z.  l.l.l.l.l.l.  l.l.l.l.l.l.q.4 8.h.h.h.h.h.t.5 ~ g.h.h.h.  l.l.l.l.l.l.l.l.l.l.l.l.l.l.l.l.l.l.l.l.l.l.  z.z.z.z.z.z.z.",
"z.z.z.z.  l.`     ` l.  l.l.l.l.l.l.5               4 / h.h.h.h.h.  l.`     ` l.` ` l.l.`     ` l.`     ` l.l.l.  z.z.z.z.z.z.z.",
"z.z.z.z.  l.l.l.l.l.l.  l.l.l.l.l.l.  l.l.l.l.l.q.4 8.h.h.h.h.h.h.  l.l.l.l.l.l.l.l.l.l.l.l.l.l.l.l.l.l.l.l.l.l.  z.z.z.z.z.z.z.",
"z.z.z.z.  l.l.l.l.l.l.  l.`     ` l.  l.l.l.l.l.5                   l.l.l.l.l.l.l.l.l.l.l.l.l.l.l.l.l.l.l.l.l.l.  z.z.z.z.z.z.z.",
"z.z.z.z.  l.l.l.`   `   l.l.l.l.l.l.  l.l.l.l.l.  l.l.l.l.l.l.l.l.l.l.`   ` l.l.` ` l.`   ` l.`   ` l.`     ` l.  z.z.z.z.z.z.z.",
"z.z.z.z.  l.l.l.l.l.l.  l.l.l.l.l.l.  l.`     `   l.l.l.l.l.l.l.l.l.l.l.l.l.l.l.l.l.l.l.l.l.l.l.l.l.l.l.l.l.l.l.  z.z.z.z.z.z.z.",
"z.z.z.z.  l.l.l.l.l.l.  l.l.l.`   `   l.l.l.l.l.  l.l.l.l.l.l.l.l.l.l.l.l.l.l.l.l.l.l.l.l.l.l.l.l.l.l.l.l.l.l.l.  z.z.z.z.z.z.z.",
"z.z.z.z.  l.`   ` l.l.  l.l.l.l.l.l.  l.l.l.l.l.  l.`     ` l.l.`   ` l.l.`   ` l.`     ` l.`     ` l.l.`     `   z.z.z.z.z.z.z.",
"z.z.z.z.  l.l.l.l.l.l.  l.l.l.l.l.l.  l.l.l.`     l.l.l.l.l.l.l.l.l.l.l.l.l.l.l.l.l.l.l.l.l.l.l.l.l.l.l.l.l.l.l.  z.z.z.z.z.z.z.",
"z.z.z.z.  l.l.l.l.l.l.  l.`   ` l.l.  l.l.l.l.l.  l.l.l.l.l.l.l.l.l.l.l.l.l.l.l.l.l.l.l.l.l.l.l.l.l.l.l.l.l.l.l.  z.z.z.z.z.z.z.",
"z.z.z.z.  l.l.`     `   l.l.l.l.l.l.  l.l.l.l.l.  l.l.l.`   ` l.`     ` l.`     ` l.` ` l.`   ` l.`   ` l.` ` l.  z.z.z.z.z.z.z.",
"z.z.z.z.  l.l.l.l.l.l.  l.l.l.l.l.l.  l.`   ` l.  l.l.l.l.l.l.l.l.l.l.l.l.l.l.l.l.l.l.l.l.l.l.l.l.l.l.l.l.l.l.l.  z.z.z.z.z.z.z.",
"z.z.z.z.  l.l.l.l.l.l.  l.l.`     `   l.l.l.l.l.  l.l.l.l.l.l.l.l.l.l.l.l.l.l.l.l.l.l.l.l.l.l.l.l.l.l.l.l.l.l.l.  z.z.z.z.z.z.z.",
"z.z.z.z.  l.`   ` l.`   l.l.l.l.l.l.  l.l.l.l.l.  l.`   ` l.l.` ` l.l.`       ` l.`   ` l.`       ` l.`     ` l.  z.z.z.z.z.z.z.",
"z.z.z.z.@ 6 6 6 6 6 6 + 6 6 6 6 6 6 + 6 w ^       l.l.l.l.l.l.l.l.l.l.l.l.l.l.l.l.l.l.l.l.l.l.l.l.l.l.l.l.l.l.l.  z.z.z.z.z.z.z.",
"z.z.z.@ L +.+.+.+.+.+.+.+.+.+.+.+.+.+.+.] i e.l.  l.l.l.l.l.l.l.l.l.l.l.l.l.l.l.l.l.l.l.l.l.l.l.l.l.l.l.l.l.l.l.  z.z.z.z.z.z.z.",
"z.z.& K &.&.@.n g g g g g g g g g g g g g u < : O 6 6 1 + + 1 6 1 + + 1 6 1 + + 1 6 1 o   ` l.`   ` `       ` l.  z.z.z.z.z.z.z.",
"z.z.%  .&.o.g G =.=.=.=.=.=.=.=.=.=.=.=.=.=.=.X.q Y +.+.+.+.+.+.+.+.+.+.+.+.+.+.+.+.+.p d.l.l.l.l.l.l.l.l.l.l.l.  z.z.z.z.z.z.z.",
"z.z.%  .&.g U 4.4.4.4.4.4.4.4.4.4.4.4.4.4.4.4.4.*., = = = = = = = = = = = = = = = = = @ 2 7 8 f.l.l.l.l.l.l.l.l.  z.z.z.z.z.z.z.",
"z.z.%  .&.* >.4.4.4.4.4.4.4.4.4.4.4.4.4.4.4.4.4.4.2.1.1.1.1.1.1.1.:.5.5.5.5.5.5.5.5.5.5.5.5.! _ Q ` y.` Q Q ` y.Q 7.7.7.7.7.z.z.",
"z.z.%  .$.. 3.4.4.4.4.4.4.4.4.4.4.4.4.4.4.4.4.4.4.4.4.4.4.4.4.4.4.6.7.7.7.7.7.7.7.7.7.7.7.7.7.7.7.7.7.7.7.7.7.7.7.7.7.7.7.7.7.z.",
"z.z.%  .O.; 4.4.4.4.4.4.4.4.4.4.4.4.4.4.4.4.4.4.4.4.4.4.4.4.4.4.4.6.7.w.u.u.u.u.u.u.u.u.u.u.u.u.u.u.u.u.u.u.u.u.u.u.u.u.w.7.7.z.",
"z.z.%  .} t 4.4.4.4.4.4.4.4.4.4.4.4.4.4.4.4.4.4.4.4.4.4.4.4.4.4.4.6.7.u.i.i.i.i.i.i.i.i.i.i.i.i.i.i.i.i.i.i.i.i.i.i.i.i.u.7.7.z.",
"z.z.%  .' k 4.4.4.4.4.4.4.4.4.4.4.4.4.4.4.4.4.4.4.4.4.4.4.4.4.4.4.6.7.u.i.i.i.i.i.i.i.i.i.i.i.i.i.i.i.i.i.i.i.i.i.i.i.i.u.7.7.z.",
"z.z.%  .R v 4.4.4.4.4.4.4.4.4.4.4.4.4.4.4.4.4.4.4.4.4.4.4.4.4.4.4.6.7.u.i.i.i.i.i.i.i.i.i.i.i.i.i.i.i.i.i.i.i.i.i.i.i.i.u.7.7.z.",
"z.z.%  .U A 4.4.4.4.4.4.4.4.4.4.4.4.4.4.4.4.4.4.4.4.4.4.4.4.4.4.4.6.7.u.i.i.i.i.i.i.i.i.i.i.i.i.i.i.i.i.i.i.i.i.i.i.i.i.u.7.7.z.",
"z.z.%  .J H 4.4.4.4.4.4.4.4.4.4.4.4.4.4.4.4.4.4.4.4.4.4.4.4.4.4.4.6.7.u.i.i.i.i.i.i.i.i.i.i.i.i.i.i.i.i.i.i.i.i.i.i.i.i.u.7.7.z.",
"z.z.%  .D I 4.4.4.4.4.4.4.4.4.4.4.4.4.4.4.4.4.4.4.4.4.4.4.4.4.4.4.6.7.w.u.u.u.u.u.u.u.u.u.u.u.u.u.u.u.u.u.u.u.u.u.u.u.u.w.7.7.z.",
"z.z.%  .Z E 4.4.4.4.4.4.4.4.4.4.4.4.4.4.4.4.4.4.4.4.4.4.4.4.4.4.4.6.7.7.7.7.7.7.7.7.7.7.7.7.7.7.7.7.7.7.7.7.7.7.7.7.7.7.7.7.7.z.",
"z.z.%  .m [ 4.4.4.4.4.4.4.4.4.4.4.4.4.4.4.4.4.4.4.4.4.4.4.4.4.4.4.6.7.7.9.0.0.9.7.9.0.0.9.7.9.0.0.9.7.9.0.0.9.7.9.0.0.9.7.7.7.z.",
"z.z.%  .x ..4.4.4.4.4.4.4.4.4.4.4.4.4.4.4.4.4.4.4.4.4.4.4.4.4.4.4.6.7.7.0.r.r.0.7.0.r.r.0.7.0.r.r.0.7.0.r.r.0.7.0.r.r.0.7.7.7.z.",
"z.z.%  .j #.4.4.4.4.4.4.4.4.4.4.4.4.4.4.4.4.4.4.4.4.4.4.4.4.4.4.4.6.7.7.0.r.r.0.7.0.r.r.0.7.0.r.r.0.7.0.r.r.0.7.0.r.r.0.7.7.7.z.",
"z.z.%  .r -.4.4.4.4.4.4.4.4.4.4.4.4.4.4.4.4.4.4.4.4.4.4.4.4.4.4.4.6.7.7.9.0.0.9.7.9.0.0.9.7.9.0.0.9.7.9.0.0.9.7.9.0.0.9.7.7.7.z.",
"z.z.%  .- ,.4.4.4.4.4.4.4.4.4.4.4.4.4.4.4.4.4.4.4.4.4.4.4.4.4.4.4.6.7.7.7.7.7.7.7.7.7.7.7.7.7.7.7.7.7.7.7.7.7.7.7.7.7.7.7.7.7.z.",
"z.z.% | X 3.4.4.4.4.4.4.4.4.4.4.4.4.4.4.4.4.4.4.4.4.4.4.4.4.4.4.4.6.7.7.9.0.0.9.7.9.0.0.9.7.9.0.0.9.7.9.0.0.9.7.9.0.0.9.7.7.7.z.",
"z.z.% { > 4.4.4.4.4.4.4.4.4.4.4.4.4.4.4.4.4.4.4.4.4.4.4.4.4.4.4.4.6.7.7.0.r.r.0.7.0.r.r.0.7.0.r.r.0.7.0.r.r.0.7.0.r.r.0.7.7.7.z.",
"z.z.% W y 4.4.4.4.4.4.4.4.4.4.4.4.4.4.4.4.4.4.4.4.4.4.4.4.4.4.4.4.6.7.7.0.r.r.0.7.0.r.r.0.7.0.r.r.0.7.0.r.r.0.7.0.r.r.0.7.7.7.z.",
"z.z.% T l 4.4.4.4.4.4.4.4.4.4.4.4.4.4.4.4.4.4.4.4.4.4.4.4.4.4.4.4.6.7.7.9.0.0.9.7.9.0.0.9.7.9.0.0.9.7.9.0.0.9.7.9.0.0.9.7.7.7.z.",
"z.z.% P b 4.4.4.4.4.4.4.4.4.4.4.4.4.4.4.4.4.4.4.4.4.4.4.4.4.4.4.4.6.7.7.7.7.7.7.7.7.7.7.7.7.7.7.7.7.7.7.7.7.7.7.7.7.7.7.7.7.7.z.",
"z.z.% J S 4.4.4.4.4.4.4.4.4.4.4.4.4.4.4.4.4.4.4.4.4.4.4.4.4.4.4.4.6.7.7.9.0.0.9.7.9.0.0.9.7.9.0.0.9.7.9.0.0.9.7.9.0.0.9.7.7.7.z.",
"z.z.% F H 4.4.4.4.4.4.4.4.4.4.4.4.4.4.4.4.4.4.4.4.4.4.4.4.4.4.4.4.6.7.7.0.r.r.0.7.0.r.r.0.7.0.r.r.0.7.0.r.r.0.7.0.r.r.0.7.7.7.z.",
"z.z.% S I 4.4.4.4.4.4.4.4.4.4.4.4.4.4.4.4.4.4.4.4.4.4.4.4.4.4.4.4.6.7.7.0.r.r.0.7.0.r.r.0.7.0.r.r.0.7.0.r.r.0.7.0.r.r.0.7.7.7.z.",
"z.z.% C E 4.4.4.4.4.4.4.4.4.4.4.4.4.4.4.4.4.4.4.4.4.4.4.4.4.4.4.4.6.7.7.9.0.0.9.7.9.0.0.9.7.9.0.0.9.7.9.0.0.9.7.9.0.0.9.7.7.7.z.",
"z.z.% c { 4.4.4.4.4.4.4.4.4.4.4.4.4.4.4.4.4.4.4.4.4.4.4.4.4.4.4.4.6.7.7.7.7.7.7.7.7.7.7.7.7.7.7.7.7.7.7.7.7.7.7.7.7.7.7.7.7.7.z.",
"z.z.% z X.4.4.4.4.4.4.4.4.4.4.4.4.4.4.4.4.4.4.4.4.4.4.4.4.4.4.4.4.6.7.7.9.0.0.9.7.9.0.0.9.7.9.0.0.9.7.9.0.0.9.7.9.0.0.9.7.7.7.z.",
"z.z.% h %.4.4.4.4.4.4.4.4.4.4.4.4.4.4.4.4.4.4.4.4.4.4.4.4.4.4.4.4.6.7.7.0.r.r.0.7.0.r.r.0.7.0.r.r.0.7.0.r.r.0.7.0.r.r.0.7.7.7.z.",
"z.z.% e ;.4.4.4.4.4.4.4.4.4.4.4.4.4.4.4.4.4.4.4.4.4.4.4.4.4.4.4.4.6.7.7.0.r.r.0.7.0.r.r.0.7.0.r.r.0.7.0.r.r.0.7.0.r.r.0.7.7.7.z.",
"z.z.% - <.4.4.4.4.4.4.4.4.4.4.4.4.4.4.4.4.4.4.4.4.4.4.4.4.4.4.4.4.6.7.7.9.0.0.9.7.9.0.0.9.7.9.0.0.9.7.9.0.0.9.7.9.0.0.9.7.7.7.z.",
"z.z.+                                                             Q 7.7.7.7.7.7.7.7.7.7.7.7.7.7.7.7.7.7.7.7.7.7.7.7.7.7.7.7.7.z.",
"z.z.z.z.z.z.z.z.z.z.z.z.z.z.z.z.z.z.z.z.z.z.z.z.z.z.z.z.z.z.z.z.z.z.( ( ( ( ( ( ( ( ( ( ` 7.7.7.7.7.7.7.7.7.7.7.7.7.7.7.7.7.z.z.",
"z.z.z.z.z.z.z.z.z.z.z.z.z.z.z.z.z.z.z.z.z.z.z.z.z.z.z.z.z.z.z.z.z.z.z.z.z.z.z.z.z.z.z.z.z.z.z.z.z.z.z.z.z.z.z.z.z.z.z.z.z.z.z.z."
};
